<?xml version="1.0" standalone="no"?>
<!DOCTYPE svg PUBLIC "-//W3C//DTD SVG 20010904//EN"
 "http://www.w3.org/TR/2001/REC-SVG-20010904/DTD/svg10.dtd">
<svg version="1.0" xmlns="http://www.w3.org/2000/svg"
 width="500.000000pt" height="500.000000pt" viewBox="0 0 500.000000 500.000000"
 preserveAspectRatio="xMidYMid meet">
<metadata>
Created by potrace 1.14, written by Peter Selinger 2001-2017
</metadata>
<g transform="translate(0.000000,500.000000) scale(0.100000,-0.100000)"
fill="#000000" stroke="none">
<path d="M0 2500 l0 -2500 2500 0 2500 0 0 2500 0 2500 -2500 0 -2500 0 0
-2500z m2570 1100 c365 -19 609 -84 812 -216 267 -173 410 -444 437 -833 25
-355 -50 -662 -216 -887 -171 -229 -418 -358 -795 -415 -74 -11 -822 -33
-1068 -31 -212 1 -420 52 -560 137 l-60 37 16 26 c39 66 31 66 140 11 167 -83
427 -132 607 -115 l77 8 0 568 0 568 -87 16 c-115 20 -171 25 -396 35 -104 5
-191 11 -194 14 -4 5 51 929 63 1035 l5 52 512 0 c282 0 600 -5 707 -10z"/>
<path d="M1436 3478 c-6 -44 -56 -806 -56 -844 0 -20 6 -21 168 -27 144 -6
313 -24 390 -42 l22 -5 0 480 0 480 -259 0 -260 0 -5 -42z"/>
<path d="M2060 3026 l0 -486 28 -12 c148 -61 217 -102 292 -176 131 -130 174
-241 174 -447 0 -248 -77 -417 -248 -542 l-58 -43 148 0 c283 0 524 29 678 82
349 119 545 354 623 743 25 126 25 433 0 560 -31 156 -74 271 -142 375 -60 93
-99 136 -188 202 -131 96 -292 162 -492 199 -93 18 -165 22 -462 26 l-353 5 0
-486z"/>
<path d="M2060 1884 l0 -535 23 6 c104 32 252 156 301 254 59 115 81 286 56
422 -17 93 -72 190 -145 257 -57 52 -193 132 -224 132 -8 0 -11 -164 -11 -536z"/>
</g>
</svg>
